<svg xmlns="http://www.w3.org/2000/svg" viewBox="-133 0 1316 1600"><path d="M-133 960C-133 987 -113 1007 -87 1013C-80 1013 -47 1013 -40 1013C7 1013 53 987 107 987C140 987 167 1013 200 1013C260 1013 487 933 487 867C487 853 473 853 467 853C380 853 327 960 240 960C233 960 227 953 227 947C227 867 413 867 413 780C413 740 300 753 273 753C187 753 -133 853 -133 960ZM240 820C240 873 20 960 -27 960C-27 893 187 820 240 820ZM509 973C509 1013 536 1013 569 1013C642 1013 869 940 869 873C869 860 869 853 849 853C769 853 702 973 616 973C616 887 762 900 762 813C762 800 649 707 642 707C576 707 516 800 469 833C462 840 462 853 462 860C462 880 462 880 482 880C536 880 569 813 629 813C642 813 649 813 649 827C649 880 509 887 509 973ZM750 967C750 993 770 1007 797 1020C803 1020 830 1020 837 1020C890 1020 1150 940 1150 867C1150 853 1137 853 1130 853C1043 853 970 960 877 960C863 960 850 967 850 947C850 947 850 940 850 940C903 880 977 813 1057 780C1083 767 1123 773 1143 753C1150 747 1183 667 1183 653C1183 640 1170 633 1163 633C1077 633 750 900 750 967Z"/></svg>
